Coordinates
version=1
nRows=4
nColumns=63
inDegrees=yes

Units are S.I. units (second, meters, Newtons, ...)
If the header above contains a line with 'inDegrees', this indicates whether rotational values are in degrees (yes) or radians (no).

endheader
time	pelvis_tilt	pelvis_list	pelvis_rotation	pelvis_tx	pelvis_ty	pelvis_tz	hip_flexion_r	hip_adduction_r	hip_rotation_r	knee_angle_r	knee_angle_r_beta	ankle_angle_r	subtalar_angle_r	mtp_angle_r	hip_flexion_l	hip_adduction_l	hip_rotation_l	knee_angle_l	knee_angle_l_beta	ankle_angle_l	subtalar_angle_l	mtp_angle_l	L5_S1_Flex_Ext	L5_S1_Lat_Bending	L5_S1_axial_rotation	L4_L5_Flex_Ext	L4_L5_Lat_Bending	L4_L5_axial_rotation	L3_L4_Flex_Ext	L3_L4_Lat_Bending	L3_L4_axial_rotation	L2_L3_Flex_Ext	L2_L3_Lat_Bending	L2_L3_axial_rotation	L1_L2_Flex_Ext	L1_L2_Lat_Bending	L1_L2_axial_rotation	L1_T12_Flex_Ext	L1_T12_Lat_Bending	L1_T12_axial_rotation	Abs_r3	Abs_r2	Abs_r1	Abs_t1	Abs_t2	neck_flexion	neck_bending	neck_rotation	arm_flex_r	arm_add_r	arm_rot_r	elbow_flex_r	pro_sup_r	wrist_flex_r	wrist_dev_r	arm_flex_l	arm_add_l	arm_rot_l	elbow_flex_l	pro_sup_l	wrist_flex_l	wrist_dev_l
      4.14200000	    -43.99353883	     -1.33237818	      4.62202362	     -0.25576025	      1.03917571	      0.26355520	     82.89554552	    -10.95374454	     -7.33858095	     46.51831078	      0.81189769	      0.76737728	      7.84337124	      0.00000000	    106.81441820	     -8.52680334	      0.76058096	    113.57628684	      1.98228016	     13.83906275	     11.55622438	      0.00000000	     -0.03931948	     -0.23347357	     -0.92948453	     -0.07302020	     -0.31051985	     -0.98757732	     -0.06459797	     -0.56766764	     -0.98757732	     -0.04493823	     -0.56766764	     -0.81329897	     -0.03651206	     -0.47609930	     -0.75520618	     -0.02246715	     -0.36165056	     -0.69711340	     -0.28085508	     -2.64109971	     -5.16951413	      0.00000000	      0.00000000	      0.00000000	      0.00000000	      0.00000000	     73.17554819	    -15.94156904	     27.12311988	     35.78054498	     34.18005317	      0.00000000	      4.99999867	     76.51124314	     -9.46694956	     28.35858543	     35.27981808	     52.20665405	      0.00000000	      4.99999867
      4.15000000	    -43.86994161	     -1.47363345	      5.15356763	     -0.25478435	      1.03930409	      0.26324698	     80.67803541	    -11.05460665	     -7.60565242	     44.43581280	      0.77555124	      0.43919919	      7.73333355	      0.00000000	    108.61437296	     -8.10400497	      0.67604567	    114.94858701	      2.00623131	     14.63259176	     11.46380390	      0.00000000	     -0.04170593	     -0.23477634	     -1.03070206	     -0.07745208	     -0.31225253	     -1.09512093	     -0.06851867	     -0.57083518	     -1.09512093	     -0.04766571	     -0.57083518	     -0.90186430	     -0.03872813	     -0.47875590	     -0.83744542	     -0.02383077	     -0.36366854	     -0.77302654	     -0.29790129	     -2.65583686	     -5.73245562	      0.00000000	      0.00000000	      0.00000000	      0.00000000	      0.00000000	     72.91610571	    -15.88846274	     26.98716563	     35.56903155	     34.21144988	      0.00000000	      4.99999870	     76.40743553	     -9.41637496	     28.42097618	     35.18530941	     52.17911117	      0.00000000	      4.99999870
      4.15800000	    -43.78537848	     -1.70436501	      5.62096371	     -0.25391821	      1.03967026	      0.26274067	     78.60292805	    -11.09118129	     -7.90343856	     42.68934652	      0.74506965	      0.24097931	      7.74942741	      0.00000000	    110.37349736	     -7.63634985	      0.66035345	    115.93304604	      2.02341337	     15.49906364	     11.71781756	      0.00000000	     -0.04191982	     -0.21883239	     -1.12529356	     -0.07784929	     -0.29104707	     -1.19562441	     -0.06887007	     -0.53206907	     -1.19562441	     -0.04791016	     -0.53206907	     -0.98463186	     -0.03892674	     -0.44624300	     -0.91430102	     -0.02395298	     -0.33897137	     -0.84397017	     -0.29942905	     -2.47547573	     -6.25854519	      0.00000000	      0.00000000	      0.00000000	      0.00000000	      0.00000000	     72.73959351	    -15.82987716	     26.81692155	     35.30932931	     34.17411673	      0.00000000	      4.99999871	     76.26510302	     -9.37448898	     28.40935084	     35.08353032	     52.18084892	      0.00000000	      4.99999871
      4.16700000	    -43.76235802	     -2.02589391	      6.08086544	     -0.25329707	      1.04029283	      0.26211088	     76.73461919	    -11.07679690	     -8.17246793	     41.31093017	      0.72101175	      0.07076646	      7.59376262	      0.00000000	    112.04975679	     -7.09708516	      0.59722154	    116.44895539	      2.03241768	     16.39898458	     11.90093795	      0.00000000	     -0.04128453	     -0.18868038	     -1.22851585	     -0.07666951	     -0.25094490	     -1.30529809	     -0.06782636	     -0.45875747	     -1.30529809	     -0.04718409	     -0.45875747	     -1.07495136	     -0.03833682	     -0.38475703	     -0.99816912	     -0.02358998	     -0.29226591	     -0.92138688	     -0.29489130	     -2.13439017	     -6.83263658	      0.00000000	      0.00000000	      0.00000000	      0.00000000	      0.00000000	     72.63714740	    -15.74664061	     26.62502724	     35.06139892	     34.13251889	      0.00000000	      4.99999873	     76.11817534	     -9.37184649	     28.27244370	     35.06552726	     52.16338450	      0.00000000	      4.99999873
